<?xml version="1.0" encoding="utf-8"?>
<!-- Generator: Adobe Illustrator 27.8.0, SVG Export Plug-In . SVG Version: 6.00 Build 0)  -->
<svg version="1.1" id="Camada_1" xmlns="http://www.w3.org/2000/svg" xmlns:xlink="http://www.w3.org/1999/xlink" x="0px" y="0px"
	 viewBox="0 0 595.28 841.89" style="enable-background:new 0 0 595.28 841.89;" xml:space="preserve">
<style type="text/css">
	.st0{clip-path:url(#SVGID_00000154398708237695885390000012837649638781847723_);fill:#AC592A;}
	.st1{clip-path:url(#SVGID_00000154398708237695885390000012837649638781847723_);fill:#712013;}
	.st2{fill:#D47D44;}
	.st3{fill:#7D3C30;}
	.st4{fill:#6B3611;}
	.st5{fill:#712013;}
	.st6{fill:#AC592A;}
	.st7{clip-path:url(#SVGID_00000125561558427862467690000004495747135479163541_);fill:#D47D44;}
	.st8{clip-path:url(#SVGID_00000125561558427862467690000004495747135479163541_);fill:#7D3C30;}
	.st9{fill:#843418;}
	.st10{fill:#4B1A12;}
	.st11{fill:#C45F2C;}
	.st12{fill:#732D1E;}
	.st13{fill:#792811;}
	.st14{fill:#44160F;}
</style>
<g>
	<g>
		<defs>
			<rect id="SVGID_1_" x="-775.45" y="-922.36" width="2021.43" height="2473.36"/>
		</defs>
		<clipPath id="SVGID_00000147915934196379008920000000885663738267873701_">
			<use xlink:href="#SVGID_1_"  style="overflow:visible;"/>
		</clipPath>
		<polyline style="clip-path:url(#SVGID_00000147915934196379008920000000885663738267873701_);fill:#AC592A;" points="
			1243.82,1548.84 -773.42,1548.84 -773.42,-920.21 1243.82,-920.21 1243.82,1548.84 		"/>
		<path style="clip-path:url(#SVGID_00000147915934196379008920000000885663738267873701_);fill:#712013;" d="M-771.27,1546.69
			h2012.95V-918.06H-771.27V1546.69 M1243.83,1551H-773.42c-1.19,0-2.15-0.97-2.15-2.16V-920.21c0-1.19,0.96-2.15,2.15-2.15h2017.25
			c1.18,0,2.15,0.96,2.15,2.15v2469.05C1245.98,1550.03,1245.01,1551,1243.83,1551"/>
	</g>
	<polygon class="st2" points="1207.17,738.45 -732.67,738.45 -732.67,-877.44 1207.17,-877.44 1207.17,738.45 	"/>
	<path class="st3" d="M-730.52,736.3h1935.54v-1611.6H-730.52V736.3L-730.52,736.3z M1209.32,740.6H-734.82v-1620.2h1944.14V740.6
		L1209.32,740.6z"/>
	<polygon class="st4" points="1152.27,738.45 -677.77,738.45 -677.77,-877.44 1152.27,-877.44 1152.27,738.45 	"/>
	<path class="st5" d="M-675.62,736.3h1825.74v-1611.6H-675.62V736.3L-675.62,736.3z M1152.27,740.6H-677.77
		c-1.19,0-2.15-0.96-2.15-2.15v-1615.9c0-1.19,0.96-2.15,2.15-2.15h1830.04c1.19,0,2.15,0.96,2.15,2.15v1615.9
		C1154.42,739.64,1153.46,740.6,1152.27,740.6L1152.27,740.6z"/>
	<polygon class="st2" points="1207.17,738.45 -732.67,738.45 -677.77,642.18 1155.37,642.18 1207.17,738.45 	"/>
	<path class="st3" d="M-728.97,736.3h1932.55l-49.5-91.97h-1830.6L-728.97,736.3L-728.97,736.3z M1210.77,740.6H-736.37
		l57.35-100.57h1835.67L1210.77,740.6L1210.77,740.6z"/>
	<polygon class="st2" points="1207.17,164.4 -732.67,164.4 -677.77,58.69 1152.71,58.69 1207.17,164.4 	"/>
	<path class="st3" d="M-729.13,162.25h1932.78L1151.4,60.84H-676.47L-729.13,162.25L-729.13,162.25z M1210.7,166.55H-736.21
		l57.13-110.02h1833.1L1210.7,166.55L1210.7,166.55z"/>
	<polygon class="st6" points="1207.17,212.53 -732.67,212.53 -732.67,164.4 1207.17,164.4 1207.17,212.53 	"/>
	<path class="st5" d="M-730.52,210.38h1935.54v-43.83H-730.52V210.38L-730.52,210.38z M1207.17,214.68H-732.67
		c-1.19,0-2.15-0.96-2.15-2.15V164.4c0-1.19,0.96-2.15,2.15-2.15h1939.84c1.19,0,2.15,0.96,2.15,2.15v48.13
		C1209.32,213.72,1208.36,214.68,1207.17,214.68L1207.17,214.68z"/>
	<polygon class="st2" points="1207.17,-443.27 -732.67,-443.27 -677.77,-526.81 1152.71,-526.81 1207.17,-443.27 	"/>
	<path class="st3" d="M-728.69-445.42h1931.9l-51.66-79.24H-676.61L-728.69-445.42L-728.69-445.42z M1211.14-441.12h-1947.8
		l57.73-87.84h1832.8L1211.14-441.12L1211.14-441.12z"/>
	<polygon class="st6" points="1207.17,-395.13 -732.67,-395.13 -732.67,-443.27 1207.17,-443.27 1207.17,-395.13 	"/>
	<path class="st5" d="M-730.52-397.29h1935.54v-43.83H-730.52V-397.29L-730.52-397.29z M1207.17-392.99H-732.67
		c-1.19,0-2.15-0.96-2.15-2.15v-48.13c0-1.19,0.96-2.15,2.15-2.15h1939.84c1.19,0,2.15,0.96,2.15,2.15v48.13
		C1209.32-393.95,1208.36-392.99,1207.17-392.99L1207.17-392.99z"/>
	<g>
		<defs>
			
				<rect id="SVGID_00000129921758290860538020000002558121659630513537_" x="-775.45" y="-922.36" width="2021.43" height="2473.36"/>
		</defs>
		<clipPath id="SVGID_00000003792557621686883030000008870146394726347940_">
			<use xlink:href="#SVGID_00000129921758290860538020000002558121659630513537_"  style="overflow:visible;"/>
		</clipPath>
		<polyline style="clip-path:url(#SVGID_00000003792557621686883030000008870146394726347940_);fill:#D47D44;" points="
			1243.82,1548.84 -773.42,1548.84 -773.42,773.83 1243.82,773.83 1243.82,1548.84 		"/>
		<path style="clip-path:url(#SVGID_00000003792557621686883030000008870146394726347940_);fill:#7D3C30;" d="M-771.27,1546.69
			h2012.95V775.98H-771.27V1546.69 M1245.98,1551H-775.57V771.68h2021.55V1551"/>
	</g>
	<path class="st9" d="M-570.64,1147.42c-3.46-2.03-6.91-4.09-10.36-6.17V775.98h10.36V1147.42"/>
	<path class="st10" d="M-570.64,1548.84h-10.36H-570.64L-570.64,1548.84 M-570.64,775.98h-10.36v-2.15h10.36V775.98"/>
	<path class="st9" d="M-339.81,1249.4c-3.46-1.1-6.9-2.21-10.36-3.35V775.98h10.36V1249.4"/>
	<path class="st10" d="M-339.81,1548.84h-10.36H-339.81L-339.81,1548.84 M-339.81,775.98h-10.36v-2.15h10.36V775.98"/>
	<path class="st9" d="M-686.05,1066.01c-3.47-3-6.92-6.06-10.36-9.17V775.98h10.36V1066.01"/>
	<path class="st10" d="M-686.05,1548.84h-10.36H-686.05L-686.05,1548.84 M-686.05,775.98h-10.36v-2.15h10.36V775.98"/>
	<path class="st9" d="M-455.22,1206.1c-3.45-1.5-6.92-3.03-10.36-4.58V775.98h10.36V1206.1"/>
	<path class="st10" d="M-455.22,1548.84h-10.36H-455.22L-455.22,1548.84 M-455.22,775.98h-10.36v-2.15h10.36V775.98"/>
	<polyline class="st10" points="-224.4,1548.84 -234.76,1548.84 -224.4,1548.84 -224.4,1548.84 	"/>
	<path class="st9" d="M-224.4,1280.58c-3.45-0.78-6.91-1.56-10.36-2.37V775.98h10.36V1280.58"/>
	<polyline class="st10" points="-224.4,775.98 -234.76,775.98 -234.76,773.83 -224.4,773.83 -224.4,775.98 	"/>
	<polyline class="st10" points="-108.99,1548.84 -119.34,1548.84 -108.99,1548.84 -108.99,1548.84 	"/>
	<path class="st9" d="M-108.99,1302.02c-3.46-0.52-6.9-1.04-10.36-1.58V775.98h10.36V1302.02"/>
	<polyline class="st10" points="-108.99,775.98 -119.34,775.98 -119.34,773.83 -108.99,773.83 -108.99,775.98 	"/>
	<polyline class="st10" points="237.25,1548.84 226.89,1548.84 237.25,1548.84 237.25,1548.84 	"/>
	<path class="st9" d="M237.25,1325.22c-3.45-0.06-6.91-0.13-10.36-0.2V775.98h10.36V1325.22"/>
	<polyline class="st10" points="237.25,775.98 226.89,775.98 226.89,773.83 237.25,773.83 237.25,775.98 	"/>
	<polyline class="st10" points="6.42,1548.84 -3.93,1548.84 6.42,1548.84 6.42,1548.84 	"/>
	<path class="st9" d="M6.42,1315.17c-3.45-0.28-6.91-0.57-10.36-0.87V775.98H6.42V1315.17"/>
	<polyline class="st10" points="6.42,775.98 -3.93,775.98 -3.93,773.83 6.42,773.83 6.42,775.98 	"/>
	<polyline class="st10" points="121.84,1548.84 111.48,1548.84 121.84,1548.84 121.84,1548.84 	"/>
	<path class="st9" d="M121.84,1321.93c-3.45-0.13-6.91-0.27-10.36-0.42V775.98h10.36V1321.93"/>
	<polyline class="st10" points="121.84,775.98 111.48,775.98 111.48,773.83 121.84,773.83 121.84,775.98 	"/>
	<polyline class="st10" points="352.66,1548.84 342.31,1548.84 352.66,1548.84 352.66,1548.84 	"/>
	<path class="st9" d="M342.31,1325.96V775.98h10.35v549.91C349.21,1325.92,345.76,1325.94,342.31,1325.96"/>
	<polyline class="st10" points="352.66,775.98 342.31,775.98 342.31,773.83 352.66,773.83 352.66,775.98 	"/>
	<polyline class="st10" points="583.49,1548.84 573.13,1548.84 583.49,1548.84 583.49,1548.84 	"/>
	<path class="st9" d="M573.13,1317.04V775.98h10.36v540.25C580.04,1316.5,576.58,1316.78,573.13,1317.04"/>
	<polyline class="st10" points="583.49,775.98 573.13,775.98 573.13,773.83 583.49,773.83 583.49,775.98 	"/>
	<polyline class="st10" points="929.72,1548.84 919.37,1548.84 929.72,1548.84 929.72,1548.84 	"/>
	<path class="st9" d="M919.37,1261.73V775.98h10.35v483.01C926.27,1259.92,922.82,1260.83,919.37,1261.73"/>
	<polyline class="st10" points="929.72,775.98 919.37,775.98 919.37,773.83 929.72,773.83 929.72,775.98 	"/>
	<polyline class="st10" points="1045.14,1548.84 1034.78,1548.84 1045.14,1548.84 1045.14,1548.84 	"/>
	<path class="st9" d="M1034.78,1226.69V775.98h10.36v447.09C1041.68,1224.29,1038.23,1225.5,1034.78,1226.69"/>
	<polyline class="st10" points="1045.14,775.98 1034.78,775.98 1034.78,773.83 1045.14,773.83 1045.14,775.98 	"/>
	<polyline class="st10" points="1160.55,1548.84 1150.19,1548.84 1160.55,1548.84 1160.55,1548.84 	"/>
	<path class="st9" d="M1150.19,1181.47V775.98h10.36v400.8C1157.1,1178.36,1153.65,1179.92,1150.19,1181.47"/>
	<polyline class="st10" points="1160.55,775.98 1150.19,775.98 1150.19,773.83 1160.55,773.83 1160.55,775.98 	"/>
	<polyline class="st10" points="468.07,1548.84 457.72,1548.84 468.07,1548.84 468.07,1548.84 	"/>
	<path class="st9" d="M457.72,1323.56V775.98h10.35v547.17c-0.08,0.01-0.16,0.01-0.24,0.01
		C464.46,1323.3,461.09,1323.43,457.72,1323.56"/>
	<polyline class="st10" points="468.07,775.98 457.72,775.98 457.72,773.83 468.07,773.83 468.07,775.98 	"/>
	<polyline class="st10" points="698.9,1548.84 688.54,1548.84 698.9,1548.84 698.9,1548.84 	"/>
	<path class="st9" d="M688.54,1305.43V775.98h10.36v528.12C695.45,1304.55,692,1305,688.54,1305.43"/>
	<polyline class="st10" points="698.9,775.98 688.54,775.98 688.54,773.83 698.9,773.83 698.9,775.98 	"/>
	<polyline class="st10" points="814.31,1548.84 803.95,1548.84 814.31,1548.84 814.31,1548.84 	"/>
	<path class="st9" d="M803.95,1287.46V775.98h10.36v509.51C810.86,1286.16,807.41,1286.81,803.95,1287.46"/>
	<polyline class="st10" points="814.31,775.98 803.95,775.98 803.95,773.83 814.31,773.83 814.31,775.98 	"/>
	<path class="st11" d="M1241.68,1546.69h-81.13v-369.91c27.4-12.57,54.53-26.36,81.13-41.62V1546.69"/>
	<path class="st12" d="M1243.83,1548.84h-83.28v-2.15h81.13v-411.53c0.71-0.41,1.43-0.83,2.15-1.24V1548.84"/>
	<path class="st11" d="M1150.19,1546.69h-105.05v-323.62c35.02-12.36,70.22-26.04,105.05-41.6V1546.69"/>
	<polyline class="st12" points="1150.19,1548.84 1045.14,1548.84 1045.14,1546.69 1150.19,1546.69 1150.19,1548.84 	"/>
	<path class="st11" d="M1034.78,1546.69H929.72v-287.7c30.05-8.06,59.96-17.05,89.69-27.05c5.12-1.73,10.24-3.47,15.37-5.25V1546.69
		"/>
	<polyline class="st12" points="1034.78,1548.84 929.72,1548.84 929.72,1546.69 1034.78,1546.69 1034.78,1548.84 	"/>
	<path class="st11" d="M919.37,1546.69H814.31v-261.2c35.17-6.8,70.2-14.66,105.06-23.76V1546.69"/>
	<polyline class="st12" points="919.37,1548.84 814.31,1548.84 814.31,1546.69 919.37,1546.69 919.37,1548.84 	"/>
	<path class="st13" d="M929.72,1546.69h-10.35v-284.96c3.45-0.9,6.9-1.81,10.35-2.74V1546.69"/>
	<polyline class="st14" points="929.72,1548.84 919.37,1548.84 919.37,1546.69 929.72,1546.69 929.72,1548.84 	"/>
	<path class="st13" d="M1045.14,1546.69h-10.36v-320c3.45-1.19,6.9-2.4,10.36-3.62V1546.69"/>
	<polyline class="st14" points="1045.14,1548.84 1034.78,1548.84 1034.78,1546.69 1045.14,1546.69 1045.14,1548.84 	"/>
	<path class="st13" d="M1160.55,1546.69h-10.36v-365.22c3.46-1.55,6.91-3.11,10.36-4.69V1546.69"/>
	<polyline class="st14" points="1160.55,1548.84 1150.19,1548.84 1150.19,1546.69 1160.55,1546.69 1160.55,1548.84 	"/>
	<path class="st11" d="M803.95,1546.69H698.9V1304.1c35.1-4.61,70.14-10.1,105.05-16.64V1546.69"/>
	<polyline class="st12" points="803.95,1548.84 698.9,1548.84 698.9,1546.69 803.95,1546.69 803.95,1548.84 	"/>
	<path class="st11" d="M688.54,1546.69H583.49v-230.46c35.05-2.83,70.08-6.38,105.05-10.8V1546.69"/>
	<polyline class="st12" points="688.54,1548.84 583.49,1548.84 583.49,1546.69 688.54,1546.69 688.54,1548.84 	"/>
	<path class="st11" d="M573.13,1546.69H468.07v-223.54c35-1.43,70.03-3.42,105.06-6.11V1546.69"/>
	<polyline class="st12" points="573.13,1548.84 468.07,1548.84 468.07,1546.69 573.13,1546.69 573.13,1548.84 	"/>
	<path class="st13" d="M583.49,1546.69h-10.36v-229.65c3.45-0.26,6.91-0.54,10.36-0.81V1546.69"/>
	<polyline class="st14" points="583.49,1548.84 573.13,1548.84 573.13,1546.69 583.49,1546.69 583.49,1548.84 	"/>
	<path class="st11" d="M457.72,1546.69H352.66v-220.8c35.03-0.27,70.04-1.01,105.06-2.33V1546.69"/>
	<polyline class="st12" points="457.72,1548.84 352.66,1548.84 352.66,1546.69 457.72,1546.69 457.72,1548.84 	"/>
	<path class="st11" d="M342.31,1546.69H237.25v-221.47c28.08,0.51,56.15,0.79,84.23,0.79c6.94,0,13.88-0.01,20.83-0.05V1546.69"/>
	<polyline class="st12" points="342.31,1548.84 237.25,1548.84 237.25,1546.69 342.31,1546.69 342.31,1548.84 	"/>
	<path class="st11" d="M226.89,1546.69H121.84v-224.76c19.51,0.78,39.03,1.41,58.55,1.96c15.5,0.44,31,0.82,46.5,1.13V1546.69"/>
	<polyline class="st12" points="226.89,1548.84 121.84,1548.84 121.84,1546.69 226.89,1546.69 226.89,1548.84 	"/>
	<path class="st11" d="M111.48,1546.69H6.42v-231.52c34.99,2.87,70.01,4.85,105.06,6.34V1546.69"/>
	<polyline class="st12" points="111.48,1548.84 6.42,1548.84 6.42,1546.69 111.48,1546.69 111.48,1548.84 	"/>
	<path class="st11" d="M-3.93,1546.69h-105.05v-244.67c4.16,0.62,8.32,1.23,12.47,1.82c30.83,4.37,61.7,7.77,92.59,10.46V1546.69"/>
	<polyline class="st12" points="-3.93,1548.84 -108.99,1548.84 -108.99,1546.69 -3.93,1546.69 -3.93,1548.84 	"/>
	<path class="st11" d="M-119.34,1546.69H-224.4v-266.11c34.96,7.87,70.03,14.42,105.05,19.86V1546.69"/>
	<polyline class="st12" points="-119.34,1548.84 -224.4,1548.84 -224.4,1546.69 -119.34,1546.69 -119.34,1548.84 	"/>
	<path class="st11" d="M-234.76,1546.69h-105.06V1249.4c34.77,11.08,69.86,20.63,105.06,28.81V1546.69 M-350.17,1546.69h-105.05
		V1206.1c34.58,15.09,69.66,28.34,105.05,39.95V1546.69 M-465.58,1546.69h-105.06v-399.27c34.35,20.18,69.43,38.13,105.06,54.1
		V1546.69 M-580.99,1546.69h-105.05v-480.68c22.96,19.92,46.51,37.63,69.81,53c11.65,7.69,23.4,15.1,35.24,22.24V1546.69
		 M-696.41,1546.69h-74.86V976.75c23.14,29.52,48.52,56.27,74.86,80.09V1546.69"/>
	<path class="st12" d="M-234.76,1548.84h-105.06v-2.15h105.06V1548.84 M-350.17,1548.84h-105.05v-2.15h105.05V1548.84
		 M-465.58,1548.84h-105.06v-2.15h105.06V1548.84 M-580.99,1548.84h-105.05v-2.15h105.05V1548.84 M-696.41,1548.84h-77.01V974
		c0.71,0.92,1.43,1.84,2.15,2.75v569.94h74.86V1548.84"/>
	<path class="st13" d="M-570.64,1546.69h-10.36v-405.44c3.44,2.08,6.9,4.14,10.36,6.17V1546.69"/>
	<polyline class="st14" points="-570.64,1548.84 -580.99,1548.84 -580.99,1546.69 -570.64,1546.69 -570.64,1548.84 	"/>
	<path class="st13" d="M-339.81,1546.69h-10.36v-300.64c3.46,1.14,6.89,2.25,10.36,3.35V1546.69"/>
	<polyline class="st14" points="-339.81,1548.84 -350.17,1548.84 -350.17,1546.69 -339.81,1546.69 -339.81,1548.84 	"/>
	<path class="st13" d="M-686.05,1546.69h-10.36v-489.85c3.44,3.11,6.89,6.17,10.36,9.17V1546.69"/>
	<polyline class="st14" points="-686.05,1548.84 -696.41,1548.84 -696.41,1546.69 -686.05,1546.69 -686.05,1548.84 	"/>
	<path class="st13" d="M-455.22,1546.69h-10.36v-345.17c3.44,1.55,6.91,3.08,10.36,4.58V1546.69"/>
	<polyline class="st14" points="-455.22,1548.84 -465.58,1548.84 -465.58,1546.69 -455.22,1546.69 -455.22,1548.84 	"/>
	<path class="st13" d="M-224.4,1546.69h-10.36v-268.48c3.45,0.81,6.9,1.59,10.36,2.37V1546.69"/>
	<polyline class="st14" points="-224.4,1548.84 -234.76,1548.84 -234.76,1546.69 -224.4,1546.69 -224.4,1548.84 	"/>
	<path class="st13" d="M-108.99,1546.69h-10.36v-246.25c3.46,0.54,6.9,1.06,10.36,1.58V1546.69"/>
	<polyline class="st14" points="-108.99,1548.84 -119.34,1548.84 -119.34,1546.69 -108.99,1546.69 -108.99,1548.84 	"/>
	<path class="st13" d="M237.25,1546.69h-10.36v-221.67c3.45,0.07,6.91,0.14,10.36,0.2V1546.69"/>
	<polyline class="st14" points="237.25,1548.84 226.89,1548.84 226.89,1546.69 237.25,1546.69 237.25,1548.84 	"/>
	<path class="st13" d="M6.42,1546.69H-3.93V1314.3c3.45,0.3,6.91,0.59,10.36,0.87V1546.69"/>
	<polyline class="st14" points="6.42,1548.84 -3.93,1548.84 -3.93,1546.69 6.42,1546.69 6.42,1548.84 	"/>
	<path class="st13" d="M121.84,1546.69h-10.36v-225.18c3.45,0.15,6.9,0.29,10.36,0.42V1546.69"/>
	<polyline class="st14" points="121.84,1548.84 111.48,1548.84 111.48,1546.69 121.84,1546.69 121.84,1548.84 	"/>
	<path class="st13" d="M352.66,1546.69h-10.35v-220.73c3.45-0.02,6.9-0.04,10.35-0.07V1546.69"/>
	<polyline class="st14" points="352.66,1548.84 342.31,1548.84 342.31,1546.69 352.66,1546.69 352.66,1548.84 	"/>
	<path class="st13" d="M468.07,1546.69h-10.35v-223.13c3.37-0.13,6.74-0.26,10.11-0.4c0.08,0,0.16,0,0.24-0.01V1546.69"/>
	<polyline class="st14" points="468.07,1548.84 457.72,1548.84 457.72,1546.69 468.07,1546.69 468.07,1548.84 	"/>
	<path class="st13" d="M698.9,1546.69h-10.36v-241.26c3.46-0.43,6.91-0.88,10.36-1.33V1546.69"/>
	<polyline class="st14" points="698.9,1548.84 688.54,1548.84 688.54,1546.69 698.9,1546.69 698.9,1548.84 	"/>
	<path class="st13" d="M814.31,1546.69h-10.36v-259.23c3.46-0.65,6.91-1.3,10.36-1.97V1546.69"/>
	<polyline class="st14" points="814.31,1548.84 803.95,1548.84 803.95,1546.69 814.31,1546.69 814.31,1548.84 	"/>
</g>
</svg>
